<?xml version="1.0" encoding="utf-8"?>
<!-- Generator: Adobe Illustrator 25.0.0, SVG Export Plug-In . SVG Version: 6.00 Build 0)  -->
<svg version="1.1" id="Layer_1" xmlns="http://www.w3.org/2000/svg" xmlns:xlink="http://www.w3.org/1999/xlink" x="0px" y="0px"
	 viewBox="0 0 675 675" style="enable-background:new 0 0 675 675;" xml:space="preserve">
<style type="text/css">
	.st0{display:none;fill:#1A1A1A;}
	.st1{fill:#1A1A1A;}
</style>
<g>
	<path class="st0" d="M309.43,602.66c-46.24-24.72-92.48-49.45-138.73-74.16c-45.48-24.29-90.97-48.55-136.46-72.84
		c-4.67-2.49-9.15-5.41-13.98-7.54c-5.19-2.28-6.83-5.91-6.76-11.34c0.24-19.32,0.22-38.64,0.22-57.96
		c0.01-100.46,0.01-200.91,0-301.37c0-1.66-0.07-3.33-0.12-4.99c-0.14-4.33,1.61-7.1,5.93-8.6C45.82,54.74,72.4,46.55,98.87,38
		c59.2-19.12,118.37-38.35,177.56-57.51c12.69-4.11,25.46-7.98,38.1-12.23c5-1.68,9.59-1.32,14.52,0.29
		C362.71-20.48,396.44-9.7,430.13,1.21c39.81,12.89,79.6,25.84,119.41,38.76c23.66,7.68,47.34,15.34,71,23.02
		c1.85,0.6,3.91,0.91,4.91,2.94c-0.51,2.75-2.82,3.42-4.95,4.25c-20.26,7.9-40.5,15.84-60.79,23.66
		c-38.55,14.86-77.1,29.71-115.69,44.45c-42.8,16.35-85.62,32.61-128.48,48.81c-4.92,1.86-7.2,4.37-7.17,10.19
		c0.68,119.58-0.99,239.16,1.16,358.74c0.18,10.29-0.46,20.58,0.7,30.9C310.81,592.05,311.55,597.52,309.43,602.66z M152.56,290.59
		c-1.83-2.49-2.92-3.69-3.7-5.07c-13.98-24.55-28.03-49.06-41.85-73.69c-15.21-27.1-30.2-54.33-45.32-81.49
		c-1.97-3.55-4.21-7.57-9.06-6.04c-4.55,1.44-4.04,5.9-4.04,9.76c0,95.13,0.04,190.27-0.14,285.4c-0.01,4.81,1.57,7.1,5.77,8.9
		c16.85,7.2,32.38,16.98,48.73,25.17c6.01,3.01,11.58,7.01,18.63,9.12c0-12.04,0-23.51,0-34.99c0-11.33,0-22.66-0.01-33.99
		c0-11.5-0.13-22.99,0.03-34.49c0.15-11.2-0.71-22.45,1.21-33.66c38.15,65.64,72.96,132.78,110.07,198.65
		c1.3-43.19,0.7-86.12,1.35-129.05c0.97-64.13,0.15-128.29,0.4-192.43c0.02-5.47-2.16-7.64-6.57-9.41
		c-8.63-3.46-17.14-7.23-25.71-10.85c-15.15-6.4-30.32-12.75-45.45-19.2c-3.6-1.53-4.54-0.43-4.41,3.28
		c0.24,6.99,0.07,13.99,0.07,20.99C152.56,221.34,152.56,255.15,152.56,290.59z"/>
	<path class="st1" d="M309.43,602.66c2.12-5.14,1.37-10.62,0.8-15.74c-1.16-10.32-0.52-20.61-0.7-30.9
		c-2.15-119.57-0.48-239.16-1.16-358.74c-0.03-5.82,2.25-8.33,7.17-10.19c42.85-16.2,85.68-32.46,128.48-48.81
		c38.59-14.74,77.15-29.59,115.69-44.45c20.29-7.82,40.53-15.76,60.79-23.66c2.13-0.83,4.44-1.5,4.95-4.25c2.66,1.65,2,4.33,2,6.74
		c0.02,78.3,0.03,156.6,0.03,234.9c0,44.48-0.07,88.96,0.09,133.45c0.02,4.99-1.6,7.85-6.09,10.09
		c-56.05,27.93-112.04,55.99-168.02,84.08c-43.69,21.93-87.34,43.94-130.99,65.94C318.29,603.23,314.19,605.63,309.43,602.66z
		 M389.53,364.48c-0.01,0-0.02,0-0.03,0c0,52.81,0,105.63,0,158.44c0,1.33,0.04,2.67-0.01,4c-0.07,2.14,0.46,3.25,2.88,2.08
		c2.84-1.37,5.81-2.49,8.64-3.89c18.18-8.99,36.28-18.16,54.53-27c20.5-9.93,41.32-19.22,61.05-30.7
		c18.7-10.89,36.01-23.34,48.02-41.82c19.97-30.73,25.17-64.63,19.47-100.17c-2.32-14.47-10.2-26.32-25.08-31.67
		c-3.26-1.17-1.27-2.71-0.38-4c5.01-7.31,9.08-15.1,11.9-23.51c4.97-14.84,7.64-30.1,9.13-45.69c1.14-12.01,1.42-23.9-1.27-35.62
		c-4.07-17.71-14.06-30.53-32.53-34.49c-14.18-3.04-28.29-2.13-42.03,3.35c-18.97,7.57-38.13,14.65-57.15,22.07
		c-17.47,6.81-34.84,13.88-52.32,20.66c-3.94,1.53-4.9,3.98-4.89,8C389.57,257.85,389.53,311.16,389.53,364.48z"/>
	<path class="st1" d="M152.56,290.59c0-35.44,0-69.26,0-103.07c0-7,0.17-14-0.07-20.99c-0.13-3.72,0.82-4.82,4.41-3.28
		c15.13,6.44,30.3,12.8,45.45,19.2c8.57,3.62,17.08,7.39,25.71,10.85c4.41,1.77,6.59,3.94,6.57,9.41
		c-0.25,64.14,0.57,128.3-0.4,192.43c-0.65,42.93-0.04,85.86-1.35,129.05c-37.11-65.87-71.93-133.01-110.07-198.65
		c-1.92,11.21-1.06,22.47-1.21,33.66c-0.16,11.49-0.03,22.99-0.03,34.49c0,11.33,0,22.66,0.01,33.99c0,11.48,0,22.96,0,34.99
		c-7.05-2.11-12.62-6.11-18.63-9.12c-16.35-8.19-31.88-17.97-48.73-25.17c-4.2-1.79-5.78-4.09-5.77-8.9
		c0.18-95.13,0.14-190.27,0.14-285.4c0-3.86-0.51-8.32,4.04-9.76c4.86-1.53,7.09,2.49,9.06,6.04C76.8,157.5,91.79,184.73,107,211.83
		c13.83,24.63,27.87,49.15,41.85,73.69C149.64,286.9,150.73,288.1,152.56,290.59z"/>
	<path class="st0" d="M389.53,364.48c0-53.31,0.04-106.63-0.08-159.94c-0.01-4.03,0.96-6.48,4.89-8
		c17.48-6.78,34.85-13.85,52.32-20.66c19.03-7.42,38.19-14.5,57.15-22.07c13.75-5.49,27.85-6.39,42.03-3.35
		c18.46,3.96,28.46,16.78,32.53,34.49c2.69,11.72,2.42,23.61,1.27,35.62c-1.48,15.59-4.15,30.85-9.13,45.69
		c-2.82,8.41-6.89,16.2-11.9,23.51c-0.89,1.29-2.88,2.83,0.38,4c14.89,5.35,22.76,17.2,25.08,31.67
		c5.7,35.54,0.5,69.44-19.47,100.17c-12.01,18.47-29.32,30.93-48.02,41.82c-19.73,11.49-40.55,20.77-61.05,30.7
		c-18.25,8.84-36.35,18.01-54.53,27c-2.83,1.4-5.8,2.51-8.64,3.89c-2.42,1.17-2.94,0.06-2.88-2.08c0.04-1.33,0.01-2.67,0.01-4
		c0-52.81,0-105.63,0-158.44C389.51,364.48,389.52,364.48,389.53,364.48z M466.48,391.48c0,11.31,0.02,22.63-0.02,33.94
		c-0.01,2.37,0.1,4.09,3.24,2.51c10.56-5.32,20.74-11.29,29.49-19.27c16.94-15.44,17-37.25,10.65-55.62
		c-2.42-6.98-9.35-10.24-16.49-8.86c-7.69,1.49-14.93,4.32-22.13,7.34c-3.58,1.5-4.95,3.56-4.84,7.53
		C466.67,369.85,466.48,380.67,466.48,391.48z M467.42,266.54c0,9.66,0.01,19.31-0.01,28.97c0,2.27,0.15,4.15,3.32,2.94
		c11.45-4.38,22.15-10.01,30.15-19.57c9.55-11.4,9.91-24.84,7.81-38.7c-2.1-13.9-11.22-17.74-24.02-13.04
		c-4.95,1.82-9.83,3.79-14.26,6.98c-2.44,1.75-3.07,3.29-3.04,5.95C467.49,248.9,467.42,257.72,467.42,266.54z"/>
	<path class="st1" d="M466.48,391.48c0-10.81,0.19-21.63-0.1-32.44c-0.11-3.98,1.27-6.03,4.84-7.53c7.2-3.02,14.44-5.85,22.13-7.34
		c7.14-1.38,14.07,1.87,16.49,8.86c6.35,18.37,6.28,40.18-10.65,55.62c-8.75,7.98-18.93,13.95-29.49,19.27
		c-3.15,1.58-3.25-0.14-3.24-2.51C466.5,414.11,466.48,402.79,466.48,391.48z"/>
	<path class="st1" d="M467.42,266.54c0-8.82,0.07-17.65-0.04-26.47c-0.03-2.65,0.6-4.19,3.04-5.95c4.43-3.18,9.31-5.16,14.26-6.98
		c12.81-4.7,21.92-0.86,24.02,13.04c2.1,13.86,1.73,27.3-7.81,38.7c-8,9.55-18.7,15.18-30.15,19.57c-3.17,1.21-3.32-0.67-3.32-2.94
		C467.43,285.85,467.42,276.2,467.42,266.54z"/>
</g>
</svg>
