<?xml version="1.0" standalone="no"?>
<!DOCTYPE svg PUBLIC "-//W3C//DTD SVG 20010904//EN"
 "http://www.w3.org/TR/2001/REC-SVG-20010904/DTD/svg10.dtd">
<svg version="1.0" xmlns="http://www.w3.org/2000/svg"
 width="512.000000pt" height="512.000000pt" viewBox="0 0 512.000000 512.000000"
 preserveAspectRatio="xMidYMid meet">

<g transform="translate(0.000000,512.000000) scale(0.100000,-0.100000)"
fill="#000000" stroke="none">
<path d="M1065 4600 c-533 -253 -976 -468 -983 -478 -19 -25 -25 -58 -17 -89
4 -18 87 -109 228 -250 l221 -223 -221 -222 c-141 -142 -224 -233 -228 -250
-8 -32 -2 -65 17 -90 7 -10 117 -67 243 -127 l230 -109 5 -818 c4 -593 8 -825
17 -839 14 -25 1950 -1045 1983 -1045 34 0 1969 1019 1983 1045 9 15 13 241
17 838 l5 818 230 110 c127 60 236 117 243 127 19 25 25 58 17 89 -4 18 -87
109 -228 251 l-221 222 221 223 c141 141 224 232 228 250 9 34 0 72 -23 95
-25 25 -1943 932 -1971 932 -12 0 -32 -5 -44 -11 -12 -6 -120 -108 -239 -227
l-218 -217 -217 217 c-120 119 -228 221 -240 227 -12 6 -32 11 -45 11 -13 0
-459 -207 -993 -460z m1310 -116 c-5 -3 -388 -184 -850 -404 l-840 -398 -175
175 c-96 96 -170 177 -165 179 6 3 388 184 850 403 l840 399 175 -175 c96 -96
171 -177 165 -179z m1655 -94 c410 -194 747 -354 750 -357 2 -2 -74 -82 -170
-177 l-175 -174 -840 399 c-462 219 -844 400 -850 403 -5 2 68 83 164 179
l174 175 101 -48 c55 -26 436 -206 846 -400z m-636 -435 c454 -214 825 -392
825 -395 0 -3 -373 -181 -829 -397 l-830 -392 -825 391 c-454 215 -825 394
-825 398 0 8 1641 789 1652 787 4 -1 378 -177 832 -392z m-1764 -965 c410
-194 747 -354 750 -357 2 -2 -74 -82 -170 -177 l-175 -174 -840 399 c-462 219
-844 400 -850 403 -5 2 68 83 164 179 l174 175 101 -48 c55 -26 436 -206 846
-400z m3145 94 c-5 -3 -388 -184 -850 -404 l-840 -398 -175 175 c-96 96 -170
177 -165 179 6 3 388 184 850 403 l840 399 175 -175 c96 -96 171 -177 165
-179z m-3371 -724 c348 -165 643 -300 655 -300 39 0 63 19 234 188 l167 167 0
-1044 c0 -831 -3 -1042 -12 -1038 -7 3 -389 203 -848 445 l-835 440 -3 721
c-1 397 0 721 3 721 3 0 290 -135 639 -300z m2954 -421 l-3 -721 -835 -440
c-459 -242 -841 -442 -847 -445 -10 -4 -13 208 -13 1038 l0 1044 168 -167
c171 -170 194 -188 234 -188 13 0 307 135 653 300 347 164 633 299 638 299 4
1 6 -324 5 -720z"/>
</g>
</svg>
